<svg width="29" height="28" viewBox="0 0 29 28" fill="none" xmlns="http://www.w3.org/2000/svg">
<path d="M14.4113 27.0445C18.0713 27.0445 21.5814 25.6198 24.1694 23.0839C26.7574 20.5479 28.2113 17.1085 28.2113 13.5221C28.2113 9.93576 26.7574 6.49629 24.1694 3.96036C21.5814 1.42443 18.0713 -0.000244141 14.4113 -0.000244141C10.7513 -0.000244141 7.24126 1.42443 4.65325 3.96036C2.06525 6.49629 0.611328 9.93576 0.611328 13.5221C0.611328 17.1085 2.06525 20.5479 4.65325 23.0839C7.24126 25.6198 10.7513 27.0445 14.4113 27.0445ZM9.45734 17.1932C10.4223 18.2866 12.0718 19.4381 14.4113 19.4381C16.7509 19.4381 18.4004 18.2866 19.3653 17.1932C19.678 16.8393 20.2224 16.8023 20.5836 17.1087C20.9448 17.4151 20.9825 17.9486 20.6698 18.3025C19.4677 19.6547 17.3816 21.1284 14.4113 21.1284C11.4411 21.1284 9.35492 19.6547 8.15281 18.3025C7.84016 17.9486 7.87789 17.4151 8.23906 17.1087C8.60023 16.8023 9.14469 16.8393 9.45734 17.1932ZM8.39539 10.9867C8.39539 10.5384 8.57713 10.1084 8.90063 9.79145C9.22413 9.47446 9.66289 9.29637 10.1204 9.29637C10.5779 9.29637 11.0167 9.47446 11.3401 9.79145C11.6637 10.1084 11.8454 10.5384 11.8454 10.9867C11.8454 11.435 11.6637 11.8649 11.3401 12.1819C11.0167 12.4989 10.5779 12.677 10.1204 12.677C9.66289 12.677 9.22413 12.4989 8.90063 12.1819C8.57713 11.8649 8.39539 11.435 8.39539 10.9867ZM18.7454 9.29637C19.2029 9.29637 19.6416 9.47446 19.9651 9.79145C20.2887 10.1084 20.4704 10.5384 20.4704 10.9867C20.4704 11.435 20.2887 11.8649 19.9651 12.1819C19.6416 12.4989 19.2029 12.677 18.7454 12.677C18.2879 12.677 17.8491 12.4989 17.5256 12.1819C17.2021 11.8649 17.0204 11.435 17.0204 10.9867C17.0204 10.5384 17.2021 10.1084 17.5256 9.79145C17.8491 9.47446 18.2879 9.29637 18.7454 9.29637Z" fill="#433878"/>
</svg>
