<svg width="36" height="36" viewBox="0 0 36 36" fill="none" xmlns="http://www.w3.org/2000/svg">
<path fill-rule="evenodd" clip-rule="evenodd" d="M18 0.00180006C8.0586 0.00180006 2.98032e-06 8.0603 2.98032e-06 18.0016C-0.00152306 20.6536 0.583012 23.2732 1.7118 25.6731L0.0378028 33.8396C-0.0217969 34.1311 -0.00816526 34.433 0.0774776 34.718C0.16312 35.003 0.318102 35.2624 0.528549 35.4728C0.738996 35.6832 0.998341 35.8382 1.28337 35.9239C1.5684 36.0095 1.87021 36.0231 2.1618 35.9635L10.3284 34.2896C12.6576 35.3875 15.2604 35.9995 18 35.9995C27.9414 35.9995 36 27.9428 36 17.9998C36 8.0603 27.9414 0 18 0" fill="#433878"/>
</svg>
