<svg width="39" height="36" viewBox="0 0 39 36" fill="none" xmlns="http://www.w3.org/2000/svg">
<path d="M39 16.2C39 15.2452 38.6265 14.3295 37.9616 13.6544C37.2967 12.9793 36.3949 12.6 35.4545 12.6H24.2509L25.9527 4.374C25.9882 4.194 26.0059 3.996 26.0059 3.798C26.0059 3.06 25.7045 2.376 25.2259 1.89L23.3468 0L11.6823 11.844C11.0264 12.51 10.6364 13.41 10.6364 14.4V32.4C10.6364 33.3548 11.0099 34.2705 11.6748 34.9456C12.3397 35.6207 13.2415 36 14.1818 36H30.1364C31.6077 36 32.8664 35.1 33.3982 33.804L38.7518 21.114C38.9114 20.7 39 20.268 39 19.8V16.2ZM0 36H7.09091V14.4H0V36Z" fill="#433878"/>
</svg>
