<svg width="35" height="28" viewBox="0 0 35 28" fill="none" xmlns="http://www.w3.org/2000/svg">
<g clip-path="url(#clip0_776_2544)">
<path d="M0.693359 6.89995C0.693359 4.99706 2.35688 3.44995 4.40296 3.44995H19.2414C21.2874 3.44995 22.951 4.99706 22.951 6.89995V20.7C22.951 22.6028 21.2874 24.15 19.2414 24.15H4.40296C2.35688 24.15 0.693359 22.6028 0.693359 20.7V6.89995ZM33.1002 5.3798C33.703 5.68167 34.0798 6.26386 34.0798 6.89995V20.7C34.0798 21.336 33.703 21.9182 33.1002 22.2201C32.4974 22.522 31.7671 22.4896 31.1932 22.1339L25.6288 18.6839L24.8058 18.1717V17.25V10.35V9.42815L25.6288 8.91604L31.1932 5.46605C31.7613 5.11565 32.4916 5.07792 33.1002 5.3798Z" fill="#433878"/>
</g>
<defs>
<clipPath id="clip0_776_2544">
<rect width="33.3864" height="27.6" fill="white" transform="translate(0.693359)"/>
</clipPath>
</defs>
</svg>
