<svg width="32" height="28" viewBox="0 0 32 28" fill="none" xmlns="http://www.w3.org/2000/svg">
<path d="M0.277344 3.86329C0.277344 1.73231 2.04547 -0.000244141 4.2202 -0.000244141H27.8773C30.0521 -0.000244141 31.8202 1.73231 31.8202 3.86329V23.1809C31.8202 25.3119 30.0521 27.0445 27.8773 27.0445H4.2202C2.04547 27.0445 0.277344 25.3119 0.277344 23.1809V3.86329ZM20.2257 10.2924C19.9485 9.89401 19.4926 9.65858 19.0059 9.65858C18.5192 9.65858 18.0572 9.89401 17.7861 10.2924L12.4263 17.9954L10.7937 15.9972C10.5103 15.6531 10.0852 15.4539 9.64163 15.4539C9.19806 15.4539 8.76681 15.6531 8.48958 15.9972L4.54672 20.8266C4.1894 21.2612 4.12163 21.8589 4.36806 22.3599C4.61449 22.861 5.13199 23.1809 5.69877 23.1809H11.6131H13.5845H26.3988C26.9471 23.1809 27.4523 22.8851 27.7048 22.4082C27.9574 21.9313 27.9266 21.3578 27.6186 20.9171L20.2257 10.2924ZM7.17734 9.65858C7.96163 9.65858 8.71379 9.35329 9.26836 8.80988C9.82293 8.26646 10.1345 7.52944 10.1345 6.76093C10.1345 5.99243 9.82293 5.2554 9.26836 4.71199C8.71379 4.16857 7.96163 3.86329 7.17734 3.86329C6.39306 3.86329 5.6409 4.16857 5.08633 4.71199C4.53176 5.2554 4.2202 5.99243 4.2202 6.76093C4.2202 7.52944 4.53176 8.26646 5.08633 8.80988C5.6409 9.35329 6.39306 9.65858 7.17734 9.65858Z" fill="#433878"/>
</svg>
